<svg version="1.1" viewBox="0.0 0.0 480.0 480.0" fill="none" stroke="none" stroke-linecap="square" stroke-miterlimit="10" xmlns:xlink="http://www.w3.org/1999/xlink" xmlns="http://www.w3.org/2000/svg"><clipPath id="gbc0aa459c3_0_5.0"><path d="m0 0l480.0 0l0 480.0l-480.0 0l0 -480.0z" clip-rule="nonzero"/></clipPath><g clip-path="url(#gbc0aa459c3_0_5.0)"><path fill="#000000" fill-opacity="0.0" d="m0 0l480.0 0l0 480.0l-480.0 0z" fill-rule="evenodd"/><path fill="#000000" fill-opacity="0.0" d="m216.11478 11.0078745l0 457.98425" fill-rule="evenodd"/><path stroke="#cccccc" stroke-width="24.0" stroke-linejoin="round" stroke-linecap="butt" d="m216.11478 11.0078745l0 457.98425" fill-rule="evenodd"/><path fill="#000000" fill-opacity="0.0" d="m227.13387 40.51864l0 0c44.838272 -4.973236 88.52748 16.340076 112.20711 54.73902c23.679626 38.39894 23.108673 87.00635 -1.4663696 124.838486c-24.575043 37.832138 -68.75284 58.113358 -113.46193 52.088272l15.587326 -115.66577z" fill-rule="evenodd"/><path fill="#000000" fill-opacity="0.0" d="m227.13387 40.51864l0 0c44.838272 -4.973236 88.52748 16.340076 112.20711 54.73902c23.679626 38.39894 23.108673 87.00635 -1.4663696 124.838486c-24.575043 37.832138 -68.75284 58.113358 -113.46193 52.088272" fill-rule="evenodd"/><path stroke="#cccccc" stroke-width="24.0" stroke-linejoin="round" stroke-linecap="butt" d="m227.13387 40.51864l0 0c44.838272 -4.973236 88.52748 16.340076 112.20711 54.73902c23.679626 38.39894 23.108673 87.00635 -1.4663696 124.838486c-24.575043 37.832138 -68.75284 58.113358 -113.46193 52.088272" fill-rule="evenodd"/></g></svg>