<svg version="1.1" viewBox="0.0 0.0 480.0 480.0" fill="none" stroke="none" stroke-linecap="square" stroke-miterlimit="10" xmlns:xlink="http://www.w3.org/1999/xlink" xmlns="http://www.w3.org/2000/svg"><clipPath id="gbc0aa459c3_0_12.0"><path d="m0 0l480.0 0l0 480.0l-480.0 0l0 -480.0z" clip-rule="nonzero"/></clipPath><g clip-path="url(#gbc0aa459c3_0_12.0)"><path fill="#000000" fill-opacity="0.0" d="m0 0l480.0 0l0 480.0l-480.0 0z" fill-rule="evenodd"/><path fill="#000000" fill-opacity="0.0" d="m128.6219 189.7539l0 0c4.2643433 -48.79567 27.738037 -93.89877 65.257126 -125.38716c37.51909 -31.488396 86.01019 -46.782703 134.80585 -42.518356l-16.078735 183.98425z" fill-rule="evenodd"/><path fill="#000000" fill-opacity="0.0" d="m128.6219 189.7539l0 0c4.2643433 -48.79567 27.738037 -93.89877 65.257126 -125.38716c37.51909 -31.488396 86.01019 -46.782703 134.80585 -42.518356" fill-rule="evenodd"/><path stroke="#cccccc" stroke-width="24.0" stroke-linejoin="round" stroke-linecap="butt" d="m128.6219 189.7539l0 0c4.2643433 -48.79567 27.738037 -93.89877 65.257126 -125.38716c37.51909 -31.488396 86.01019 -46.782703 134.80585 -42.518356" fill-rule="evenodd"/></g></svg>