<svg version="1.1" viewBox="0.0 0.0 480.0 480.0" fill="none" stroke="none" stroke-linecap="square" stroke-miterlimit="10" xmlns:xlink="http://www.w3.org/1999/xlink" xmlns="http://www.w3.org/2000/svg"><clipPath id="gbc0aa459c3_0_24.0"><path d="m0 0l480.0 0l0 480.0l-480.0 0l0 -480.0z" clip-rule="nonzero"/></clipPath><g clip-path="url(#gbc0aa459c3_0_24.0)"><path fill="#000000" fill-opacity="0.0" d="m0 0l480.0 0l0 480.0l-480.0 0z" fill-rule="evenodd"/><path fill="#000000" fill-opacity="0.0" d="m147.3935 11.018373l0 430.4882" fill-rule="evenodd"/><path stroke="#cccccc" stroke-width="24.0" stroke-linejoin="round" stroke-linecap="butt" d="m147.3935 11.018373l0 430.4882" fill-rule="evenodd"/><path fill="#000000" fill-opacity="0.0" d="m155.02357 33.857086l0 0c54.67218 -6.0603027 109.51259 9.846054 152.45692 44.21985c42.944366 34.373795 70.474884 84.39931 76.53519 139.07149l-206.14172 22.850403z" fill-rule="evenodd"/><path fill="#000000" fill-opacity="0.0" d="m155.02357 33.857086l0 0c54.67218 -6.0603027 109.51259 9.846054 152.45692 44.21985c42.944366 34.373795 70.474884 84.39931 76.53519 139.07149" fill-rule="evenodd"/><path stroke="#cccccc" stroke-width="24.0" stroke-linejoin="round" stroke-linecap="butt" d="m155.02357 33.857086l0 0c54.67218 -6.0603027 109.51259 9.846054 152.45692 44.21985c42.944366 34.373795 70.474884 84.39931 76.53519 139.07149" fill-rule="evenodd"/></g></svg>