<svg version="1.1" viewBox="0.0 0.0 480.0 480.0" fill="none" stroke="none" stroke-linecap="square" stroke-miterlimit="10" xmlns:xlink="http://www.w3.org/1999/xlink" xmlns="http://www.w3.org/2000/svg"><clipPath id="gbc0aa459c3_0_37.0"><path d="m0 0l480.0 0l0 480.0l-480.0 0l0 -480.0z" clip-rule="nonzero"/></clipPath><g clip-path="url(#gbc0aa459c3_0_37.0)"><path fill="#000000" fill-opacity="0.0" d="m0 0l480.0 0l0 480.0l-480.0 0z" fill-rule="evenodd"/><path fill="#000000" fill-opacity="0.0" d="m408.4564 433.93057l0 0c-83.59079 48.224487 -188.67604 37.460785 -260.75452 -26.708649c-72.07848 -64.1694 -94.92911 -167.30339 -56.70066 -255.91269c38.228447 -88.6093 128.93274 -142.75261 225.07013 -134.34915l-19.496063 223.03937z" fill-rule="evenodd"/><path fill="#000000" fill-opacity="0.0" d="m408.4564 433.93057l0 0c-83.59079 48.224487 -188.67604 37.460785 -260.75452 -26.708649c-72.07848 -64.1694 -94.92911 -167.30339 -56.70066 -255.91269c38.228447 -88.6093 128.93274 -142.75261 225.07013 -134.34915" fill-rule="evenodd"/><path stroke="#cccccc" stroke-width="24.0" stroke-linejoin="round" stroke-linecap="butt" d="m408.4564 433.93057l0 0c-83.59079 48.224487 -188.67604 37.460785 -260.75452 -26.708649c-72.07848 -64.1694 -94.92911 -167.30339 -56.70066 -255.91269c38.228447 -88.6093 128.93274 -142.75261 225.07013 -134.34915" fill-rule="evenodd"/></g></svg>