<svg version="1.1" viewBox="0.0 0.0 480.0 480.0" fill="none" stroke="none" stroke-linecap="square" stroke-miterlimit="10" xmlns:xlink="http://www.w3.org/1999/xlink" xmlns="http://www.w3.org/2000/svg"><clipPath id="gbc0aa459c3_0_90.0"><path d="m0 0l480.0 0l0 480.0l-480.0 0l0 -480.0z" clip-rule="nonzero"/></clipPath><g clip-path="url(#gbc0aa459c3_0_90.0)"><path fill="#000000" fill-opacity="0.0" d="m0 0l480.0 0l0 480.0l-480.0 0z" fill-rule="evenodd"/><path fill="#000000" fill-opacity="0.0" d="m457.9307 185.99933l0 0c23.473724 94.73251 -16.940002 193.77905 -99.98654 245.04831c-83.04651 51.269257 -189.70197 43.016724 -263.87326 -20.417328c-74.1713 -63.434082 -98.86768 -167.51854 -61.10064 -257.5125c37.767044 -89.993965 129.34604 -145.28207 226.57306 -136.78677l-19.543304 223.6693z" fill-rule="evenodd"/><path fill="#000000" fill-opacity="0.0" d="m457.9307 185.99933l0 0c23.473724 94.73251 -16.940002 193.77905 -99.98654 245.04831c-83.04651 51.269257 -189.70197 43.016724 -263.87326 -20.417328c-74.1713 -63.434082 -98.86768 -167.51854 -61.10064 -257.5125c37.767044 -89.993965 129.34604 -145.28207 226.57306 -136.78677" fill-rule="evenodd"/><path stroke="#cccccc" stroke-width="24.0" stroke-linejoin="round" stroke-linecap="butt" d="m457.9307 185.99933l0 0c23.473724 94.73251 -16.940002 193.77905 -99.98654 245.04831c-83.04651 51.269257 -189.70197 43.016724 -263.87326 -20.417328c-74.1713 -63.434082 -98.86768 -167.51854 -61.10064 -257.5125c37.767044 -89.993965 129.34604 -145.28207 226.57306 -136.78677" fill-rule="evenodd"/></g></svg>