<svg version="1.1" viewBox="0.0 0.0 480.0 480.0" fill="none" stroke="none" stroke-linecap="square" stroke-miterlimit="10" xmlns:xlink="http://www.w3.org/1999/xlink" xmlns="http://www.w3.org/2000/svg"><clipPath id="gbc0aa459c3_0_94.0"><path d="m0 0l480.0 0l0 480.0l-480.0 0l0 -480.0z" clip-rule="nonzero"/></clipPath><g clip-path="url(#gbc0aa459c3_0_94.0)"><path fill="#000000" fill-opacity="0.0" d="m0 0l480.0 0l0 480.0l-480.0 0z" fill-rule="evenodd"/><path fill="#000000" fill-opacity="0.0" d="m20.91601 239.27034l0 0c0 -121.38958 98.4057 -219.79527 219.79527 -219.79527l0 0c58.29332 0 114.19911 23.156935 155.41872 64.37654c41.219635 41.219612 64.37656 97.1254 64.37656 155.41873l0 0c0 121.38957 -98.4057 219.79527 -219.79527 219.79527l0 0c-121.38958 0 -219.79527 -98.4057 -219.79527 -219.79527z" fill-rule="evenodd"/><path stroke="#cccccc" stroke-width="24.0" stroke-linejoin="round" stroke-linecap="butt" d="m20.91601 239.27034l0 0c0 -121.38958 98.4057 -219.79527 219.79527 -219.79527l0 0c58.29332 0 114.19911 23.156935 155.41872 64.37654c41.219635 41.219612 64.37656 97.1254 64.37656 155.41873l0 0c0 121.38957 -98.4057 219.79527 -219.79527 219.79527l0 0c-121.38958 0 -219.79527 -98.4057 -219.79527 -219.79527z" fill-rule="evenodd"/></g></svg>