<svg version="1.1" viewBox="0.0 0.0 480.0 480.0" fill="none" stroke="none" stroke-linecap="square" stroke-miterlimit="10" xmlns:xlink="http://www.w3.org/1999/xlink" xmlns="http://www.w3.org/2000/svg"><clipPath id="gbc0aa459c3_0_114.0"><path d="m0 0l480.0 0l0 480.0l-480.0 0l0 -480.0z" clip-rule="nonzero"/></clipPath><g clip-path="url(#gbc0aa459c3_0_114.0)"><path fill="#000000" fill-opacity="0.0" d="m0 0l480.0 0l0 480.0l-480.0 0z" fill-rule="evenodd"/><path fill="#000000" fill-opacity="0.0" d="m216.72374 215.21382l0 0c-36.449387 -11.203506 -63.562103 -41.865128 -70.220245 -79.4117c-6.658142 -37.546577 8.258438 -75.66127 38.633026 -98.71469c30.374588 -23.053421 71.09697 -27.167065 105.46843 -10.654085l-44.01709 91.62077z" fill-rule="evenodd"/><path fill="#000000" fill-opacity="0.0" d="m216.72374 215.21382l0 0c-36.449387 -11.203506 -63.562103 -41.865128 -70.220245 -79.4117c-6.658142 -37.546577 8.258438 -75.66127 38.633026 -98.71469c30.374588 -23.053421 71.09697 -27.167065 105.46843 -10.654085" fill-rule="evenodd"/><path stroke="#cccccc" stroke-width="24.0" stroke-linejoin="round" stroke-linecap="butt" d="m216.72374 215.21382l0 0c-36.449387 -11.203506 -63.562103 -41.865128 -70.220245 -79.4117c-6.658142 -37.546577 8.258438 -75.66127 38.633026 -98.71469c30.374588 -23.053421 71.09697 -27.167065 105.46843 -10.654085" fill-rule="evenodd"/></g></svg>