<svg version="1.1" viewBox="0.0 0.0 480.0 480.0" fill="none" stroke="none" stroke-linecap="square" stroke-miterlimit="10" xmlns:xlink="http://www.w3.org/1999/xlink" xmlns="http://www.w3.org/2000/svg"><clipPath id="gbc0aa459c3_0_129.0"><path d="m0 0l480.0 0l0 480.0l-480.0 0l0 -480.0z" clip-rule="nonzero"/></clipPath><g clip-path="url(#gbc0aa459c3_0_129.0)"><path fill="#000000" fill-opacity="0.0" d="m0 0l480.0 0l0 480.0l-480.0 0z" fill-rule="evenodd"/><path fill="#000000" fill-opacity="0.0" d="m140.03018 37.17323c0 42.70647 -1.443573 198.97594 0 256.23886c1.443573 57.26291 0.6014862 64.72177 8.661423 87.33859c8.059921 22.61679 19.126862 38.016174 39.698166 48.362183c20.571304 10.346039 61.95494 13.713928 83.729645 13.713928c21.77472 0 35.48996 -6.6159363 46.91864 -13.713928c11.428711 -7.097992 18.044617 -24.061676 21.653534 -28.874023" fill-rule="evenodd"/><path stroke="#cccccc" stroke-width="24.0" stroke-linejoin="round" stroke-linecap="butt" d="m140.03018 37.17323c0 42.70647 -1.443573 198.97594 0 256.23886c1.443573 57.26291 0.6014862 64.72177 8.661423 87.33859c8.059921 22.61679 19.126862 38.016174 39.698166 48.362183c20.571304 10.346039 61.95494 13.713928 83.729645 13.713928c21.77472 0 35.48996 -6.6159363 46.91864 -13.713928c11.428711 -7.097992 18.044617 -24.061676 21.653534 -28.874023" fill-rule="evenodd"/></g></svg>